solid OpenSCAD_Model
  facet normal 0 -1 0
    outer loop
      vertex -0.6875 -1.19078 -0.0625
      vertex 0.6875 -1.19078 0.0625
      vertex -0.6875 -1.19078 0.0625
    endloop
  endfacet
  facet normal 0 -1 -0
    outer loop
      vertex 0.6875 -1.19078 0.0625
      vertex -0.6875 -1.19078 -0.0625
      vertex 0.6875 -1.19078 -0.0625
    endloop
  endfacet
  facet normal 0.866025 -0.500002 0
    outer loop
      vertex 0.6875 -1.19078 0.0625
      vertex 1.375 0 -0.0625
      vertex 1.375 0 0.0625
    endloop
  endfacet
  facet normal 0.866025 -0.500002 0
    outer loop
      vertex 1.375 0 -0.0625
      vertex 0.6875 -1.19078 0.0625
      vertex 0.6875 -1.19078 -0.0625
    endloop
  endfacet
  facet normal 0.866025 0.500002 0
    outer loop
      vertex 1.375 0 0.0625
      vertex 0.6875 1.19078 -0.0625
      vertex 0.6875 1.19078 0.0625
    endloop
  endfacet
  facet normal 0.866025 0.500002 0
    outer loop
      vertex 0.6875 1.19078 -0.0625
      vertex 1.375 0 0.0625
      vertex 1.375 0 -0.0625
    endloop
  endfacet
  facet normal -0.866025 -0.500002 0
    outer loop
      vertex -0.6875 -1.19078 -0.0625
      vertex -1.375 0 0.0625
      vertex -1.375 0 -0.0625
    endloop
  endfacet
  facet normal -0.866025 -0.500002 0
    outer loop
      vertex -1.375 0 0.0625
      vertex -0.6875 -1.19078 -0.0625
      vertex -0.6875 -1.19078 0.0625
    endloop
  endfacet
  facet normal 0 0 -1
    outer loop
      vertex 0.6875 -1.19078 -0.0625
      vertex 1.125 0 -0.0625
      vertex 1.375 0 -0.0625
    endloop
  endfacet
  facet normal 0 0 -1
    outer loop
      vertex 0.6875 -1.19078 -0.0625
      vertex 0.5625 -0.974274 -0.0625
      vertex 1.125 0 -0.0625
    endloop
  endfacet
  facet normal 0 0 -1
    outer loop
      vertex 0.6875 -1.19078 -0.0625
      vertex -0.5625 -0.974274 -0.0625
      vertex 0.5625 -0.974274 -0.0625
    endloop
  endfacet
  facet normal 0 0 -1
    outer loop
      vertex -0.6875 -1.19078 -0.0625
      vertex -0.5625 -0.974274 -0.0625
      vertex 0.6875 -1.19078 -0.0625
    endloop
  endfacet
  facet normal 0 0 -1
    outer loop
      vertex -0.6875 -1.19078 -0.0625
      vertex -1.125 0 -0.0625
      vertex -0.5625 -0.974274 -0.0625
    endloop
  endfacet
  facet normal -0 -0 -1
    outer loop
      vertex -1.125 0 -0.0625
      vertex -0.6875 -1.19078 -0.0625
      vertex -1.375 0 -0.0625
    endloop
  endfacet
  facet normal 0 0 -1
    outer loop
      vertex 1.125 0 -0.0625
      vertex 0.6875 1.19078 -0.0625
      vertex 1.375 0 -0.0625
    endloop
  endfacet
  facet normal 0 0 -1
    outer loop
      vertex 0.5625 0.974274 -0.0625
      vertex 0.6875 1.19078 -0.0625
      vertex 1.125 0 -0.0625
    endloop
  endfacet
  facet normal 0 0 -1
    outer loop
      vertex -0.5625 0.974274 -0.0625
      vertex 0.6875 1.19078 -0.0625
      vertex 0.5625 0.974274 -0.0625
    endloop
  endfacet
  facet normal 0 0 -1
    outer loop
      vertex -0.5625 0.974274 -0.0625
      vertex -0.6875 1.19078 -0.0625
      vertex 0.6875 1.19078 -0.0625
    endloop
  endfacet
  facet normal 0 0 -1
    outer loop
      vertex -1.125 0 -0.0625
      vertex -0.6875 1.19078 -0.0625
      vertex -0.5625 0.974274 -0.0625
    endloop
  endfacet
  facet normal 0 0 -1
    outer loop
      vertex -0.6875 1.19078 -0.0625
      vertex -1.125 0 -0.0625
      vertex -1.375 0 -0.0625
    endloop
  endfacet
  facet normal 0 0 1
    outer loop
      vertex 0.6875 1.19078 0.0625
      vertex 1.125 0 0.0625
      vertex 1.375 0 0.0625
    endloop
  endfacet
  facet normal 0 0 1
    outer loop
      vertex 0.6875 1.19078 0.0625
      vertex 0.5625 0.974274 0.0625
      vertex 1.125 0 0.0625
    endloop
  endfacet
  facet normal 0 0 1
    outer loop
      vertex 0.6875 1.19078 0.0625
      vertex -0.5625 0.974274 0.0625
      vertex 0.5625 0.974274 0.0625
    endloop
  endfacet
  facet normal -0 0 1
    outer loop
      vertex -0.6875 1.19078 0.0625
      vertex -0.5625 0.974274 0.0625
      vertex 0.6875 1.19078 0.0625
    endloop
  endfacet
  facet normal 0 0 1
    outer loop
      vertex -0.6875 1.19078 0.0625
      vertex -1.125 0 0.0625
      vertex -0.5625 0.974274 0.0625
    endloop
  endfacet
  facet normal 0 -0 1
    outer loop
      vertex -1.125 0 0.0625
      vertex -0.6875 1.19078 0.0625
      vertex -1.375 0 0.0625
    endloop
  endfacet
  facet normal -0 0 1
    outer loop
      vertex 1.125 0 0.0625
      vertex 0.6875 -1.19078 0.0625
      vertex 1.375 0 0.0625
    endloop
  endfacet
  facet normal -0 0 1
    outer loop
      vertex 0.5625 -0.974274 0.0625
      vertex 0.6875 -1.19078 0.0625
      vertex 1.125 0 0.0625
    endloop
  endfacet
  facet normal -0 0 1
    outer loop
      vertex -0.5625 -0.974274 0.0625
      vertex 0.6875 -1.19078 0.0625
      vertex 0.5625 -0.974274 0.0625
    endloop
  endfacet
  facet normal 0 0 1
    outer loop
      vertex -0.5625 -0.974274 0.0625
      vertex -0.6875 -1.19078 0.0625
      vertex 0.6875 -1.19078 0.0625
    endloop
  endfacet
  facet normal 0 0 1
    outer loop
      vertex -1.125 0 0.0625
      vertex -0.6875 -1.19078 0.0625
      vertex -0.5625 -0.974274 0.0625
    endloop
  endfacet
  facet normal 0 0 1
    outer loop
      vertex -0.6875 -1.19078 0.0625
      vertex -1.125 0 0.0625
      vertex -1.375 0 0.0625
    endloop
  endfacet
  facet normal -0.866025 0.500002 0
    outer loop
      vertex -1.375 0 -0.0625
      vertex -0.6875 1.19078 0.0625
      vertex -0.6875 1.19078 -0.0625
    endloop
  endfacet
  facet normal -0.866025 0.500002 0
    outer loop
      vertex -0.6875 1.19078 0.0625
      vertex -1.375 0 -0.0625
      vertex -1.375 0 0.0625
    endloop
  endfacet
  facet normal 0 1 -0
    outer loop
      vertex 0.6875 1.19078 -0.0625
      vertex -0.6875 1.19078 0.0625
      vertex 0.6875 1.19078 0.0625
    endloop
  endfacet
  facet normal 0 1 0
    outer loop
      vertex -0.6875 1.19078 0.0625
      vertex 0.6875 1.19078 -0.0625
      vertex -0.6875 1.19078 -0.0625
    endloop
  endfacet
  facet normal -0.866024 0.500002 0
    outer loop
      vertex 0.5625 -0.974274 -0.0625
      vertex 1.125 0 0.0625
      vertex 1.125 0 -0.0625
    endloop
  endfacet
  facet normal -0.866024 0.500002 0
    outer loop
      vertex 1.125 0 0.0625
      vertex 0.5625 -0.974274 -0.0625
      vertex 0.5625 -0.974274 0.0625
    endloop
  endfacet
  facet normal 0.866024 0.500002 0
    outer loop
      vertex -0.5625 -0.974274 0.0625
      vertex -1.125 0 -0.0625
      vertex -1.125 0 0.0625
    endloop
  endfacet
  facet normal 0.866024 0.500002 0
    outer loop
      vertex -1.125 0 -0.0625
      vertex -0.5625 -0.974274 0.0625
      vertex -0.5625 -0.974274 -0.0625
    endloop
  endfacet
  facet normal 0 1 -0
    outer loop
      vertex 0.5625 -0.974274 -0.0625
      vertex -0.5625 -0.974274 0.0625
      vertex 0.5625 -0.974274 0.0625
    endloop
  endfacet
  facet normal 0 1 0
    outer loop
      vertex -0.5625 -0.974274 0.0625
      vertex 0.5625 -0.974274 -0.0625
      vertex -0.5625 -0.974274 -0.0625
    endloop
  endfacet
  facet normal 0.866024 -0.500002 0
    outer loop
      vertex -1.125 0 0.0625
      vertex -0.5625 0.974274 -0.0625
      vertex -0.5625 0.974274 0.0625
    endloop
  endfacet
  facet normal 0.866024 -0.500002 0
    outer loop
      vertex -0.5625 0.974274 -0.0625
      vertex -1.125 0 0.0625
      vertex -1.125 0 -0.0625
    endloop
  endfacet
  facet normal 0 -1 0
    outer loop
      vertex -0.5625 0.974274 -0.0625
      vertex 0.5625 0.974274 0.0625
      vertex -0.5625 0.974274 0.0625
    endloop
  endfacet
  facet normal 0 -1 -0
    outer loop
      vertex 0.5625 0.974274 0.0625
      vertex -0.5625 0.974274 -0.0625
      vertex 0.5625 0.974274 -0.0625
    endloop
  endfacet
  facet normal -0.866024 -0.500002 0
    outer loop
      vertex 1.125 0 -0.0625
      vertex 0.5625 0.974274 0.0625
      vertex 0.5625 0.974274 -0.0625
    endloop
  endfacet
  facet normal -0.866024 -0.500002 0
    outer loop
      vertex 0.5625 0.974274 0.0625
      vertex 1.125 0 -0.0625
      vertex 1.125 0 0.0625
    endloop
  endfacet
endsolid OpenSCAD_Model
